<svg width="1440" height="1028" viewBox="0 0 1440 1028" fill="none" xmlns="http://www.w3.org/2000/svg">
<rect y="122" width="1440" height="906" fill="#6E675F" fill-opacity="0.5"/>
<rect y="201" width="1440" height="827" fill="#B4AEA5" fill-opacity="0.3"/>
<path fill-rule="evenodd" clip-rule="evenodd" d="M0 280.335H564C584 224.507 642 175 720 175C798 175 851 231.881 868 280.335H1440V1024H0V280.335Z" fill="url(#paint0_linear_301_330)"/>
<g filter="url(#filter0_i_301_330)">
<path d="M713.774 379.842C761.154 386.567 778.237 387.341 813.72 410.582C843.526 433.808 864.095 466.942 871.726 504.025C879.357 541.108 873.55 579.707 855.349 612.877C837.148 646.048 807.748 671.614 772.437 684.978C737.126 698.341 698.222 698.624 662.721 685.777C627.221 672.929 597.454 647.794 578.775 614.892C560.097 581.989 553.732 543.48 560.825 506.29C567.919 469.099 584.956 442.46 606.234 421.634C622.486 440.728 635.651 451.799 661.006 462.196C648.084 475.937 639.395 501.37 635.714 520.669C632.033 539.969 635.336 559.953 645.029 577.027C654.722 594.102 670.169 607.145 688.592 613.812C707.015 620.48 727.204 620.333 745.528 613.398C763.852 606.463 779.109 593.196 788.554 575.982C797.999 558.768 801.013 538.738 797.053 519.494C793.093 500.25 782.419 483.056 766.951 471.003C751.484 458.95 733.574 454.829 712.964 452.781L712.963 452.746C688.083 450.481 666.391 445.265 646.899 431.271C625.184 415.682 609.332 393.211 601.897 367.479C594.463 341.748 595.88 314.255 605.919 289.43C615.957 264.604 634.034 243.893 657.236 230.634C680.437 217.374 707.413 212.337 733.815 216.336C760.218 220.335 784.509 233.136 802.776 252.677C821.043 272.217 832.221 297.359 834.509 324.051C836.798 350.743 831.072 368.618 816.399 391.001C789.895 373.796 782.631 374.817 751.674 368.084C755.713 357.963 760.369 340.316 759.53 330.522C758.69 320.728 754.589 311.502 747.886 304.332C741.183 297.162 732.27 292.465 722.582 290.998C712.895 289.531 702.997 291.379 694.483 296.244C685.97 301.11 679.337 308.709 675.654 317.818C671.97 326.927 671.451 337.015 674.178 346.457C676.906 355.898 682.723 364.143 690.691 369.863C697.302 374.61 705.655 377.989 713.774 379.842Z" fill="url(#paint1_linear_301_330)"/>
<path d="M563.072 727.112H870.244V735.063H563.072V727.112Z" fill="url(#paint2_linear_301_330)"/>
<path d="M566.342 791.704C568.227 794.427 570.182 796.549 572.205 798.072C574.275 799.548 576.942 800.286 580.207 800.286C581.771 800.286 583.265 800.033 584.691 799.525C586.117 799.018 587.289 798.279 588.209 797.31C589.129 796.341 589.589 795.188 589.589 793.85C589.589 791.543 588.6 789.743 586.623 788.451C584.691 787.159 581.955 786.167 578.414 785.475C573.907 784.552 570.32 782.96 567.653 780.7C564.985 778.392 563.652 775.07 563.652 770.733C563.652 767.965 564.41 765.565 565.928 763.535C567.492 761.505 569.538 759.936 572.067 758.829C574.597 757.721 577.333 757.167 580.276 757.167C584.093 757.167 587.381 757.906 590.141 759.382C592.9 760.859 595.061 762.958 596.625 765.681L591.382 770.871C590.141 768.795 588.577 767.111 586.692 765.819C584.806 764.527 582.599 763.881 580.069 763.881C577.54 763.881 575.402 764.481 573.654 765.681C571.952 766.834 571.102 768.449 571.102 770.525C571.102 772.879 571.998 774.609 573.792 775.716C575.631 776.778 578.046 777.631 581.035 778.277C583.748 778.831 586.324 779.684 588.761 780.838C591.198 781.991 593.176 783.491 594.693 785.337C596.257 787.136 597.039 789.328 597.039 791.912C597.039 796.526 595.475 800.194 592.348 802.917C589.221 805.639 584.921 807 579.448 807C575.723 807 572.32 806.262 569.239 804.785C566.204 803.309 563.537 800.909 561.237 797.587L566.342 791.704Z" fill="url(#paint3_linear_301_330)"/>
<path d="M618.356 757.86L634.152 783.676L650.225 757.86H657.123V806.308H649.673V786.444C649.673 783.537 649.719 780.792 649.811 778.208C649.949 775.578 650.156 772.971 650.432 770.387L636.222 792.396H631.669L617.804 770.456C618.08 773.04 618.264 775.624 618.356 778.208C618.448 780.792 618.494 783.537 618.494 786.444V806.308H611.044V757.86H618.356Z" fill="url(#paint4_linear_301_330)"/>
<path d="M717.983 782.084C717.983 785.59 717.408 788.866 716.258 791.912C715.109 794.911 713.453 797.541 711.292 799.802C709.176 802.063 706.67 803.839 703.773 805.131C700.921 806.377 697.771 807 694.322 807C690.873 807 687.7 806.377 684.803 805.131C681.905 803.839 679.399 802.063 677.284 799.802C675.168 797.541 673.536 794.911 672.386 791.912C671.236 788.866 670.661 785.59 670.661 782.084C670.661 778.577 671.236 775.324 672.386 772.325C673.536 769.28 675.168 766.626 677.284 764.365C679.399 762.105 681.905 760.351 684.803 759.105C687.7 757.813 690.873 757.167 694.322 757.167C697.771 757.167 700.921 757.813 703.773 759.105C706.67 760.351 709.176 762.105 711.292 764.365C713.453 766.626 715.109 769.28 716.258 772.325C717.408 775.324 717.983 778.577 717.983 782.084ZM710.395 782.084C710.395 778.715 709.705 775.716 708.325 773.086C706.946 770.41 705.037 768.311 702.6 766.788C700.209 765.219 697.449 764.435 694.322 764.435C691.149 764.435 688.344 765.219 685.906 766.788C683.515 768.311 681.63 770.41 680.25 773.086C678.916 775.716 678.249 778.715 678.249 782.084C678.249 785.452 678.916 788.474 680.25 791.151C681.63 793.781 683.515 795.88 685.906 797.449C688.344 798.971 691.149 799.733 694.322 799.733C697.449 799.733 700.209 798.971 702.6 797.449C705.037 795.88 706.946 793.757 708.325 791.081C709.705 788.405 710.395 785.406 710.395 782.084Z" fill="url(#paint5_linear_301_330)"/>
<path d="M775.391 782.084C775.391 785.59 774.816 788.866 773.667 791.912C772.517 794.911 770.861 797.541 768.7 799.802C766.584 802.063 764.078 803.839 761.181 805.131C758.33 806.377 755.179 807 751.73 807C748.281 807 745.108 806.377 742.211 805.131C739.314 803.839 736.807 802.063 734.692 799.802C732.577 797.541 730.944 794.911 729.794 791.912C728.645 788.866 728.07 785.59 728.07 782.084C728.07 778.577 728.645 775.324 729.794 772.325C730.944 769.28 732.577 766.626 734.692 764.365C736.807 762.105 739.314 760.351 742.211 759.105C745.108 757.813 748.281 757.167 751.73 757.167C755.179 757.167 758.33 757.813 761.181 759.105C764.078 760.351 766.584 762.105 768.7 764.365C770.861 766.626 772.517 769.28 773.667 772.325C774.816 775.324 775.391 778.577 775.391 782.084ZM767.803 782.084C767.803 778.715 767.113 775.716 765.734 773.086C764.354 770.41 762.446 768.311 760.008 766.788C757.617 765.219 754.858 764.435 751.73 764.435C748.557 764.435 745.752 765.219 743.315 766.788C740.923 768.311 739.038 770.41 737.658 773.086C736.325 775.716 735.658 778.715 735.658 782.084C735.658 785.452 736.325 788.474 737.658 791.151C739.038 793.781 740.923 795.88 743.315 797.449C745.752 798.971 748.557 799.733 751.73 799.733C754.858 799.733 757.617 798.971 760.008 797.449C762.446 795.88 764.354 793.757 765.734 791.081C767.113 788.405 767.803 785.406 767.803 782.084Z" fill="url(#paint6_linear_301_330)"/>
<path d="M827.745 757.86L808.292 806.308H801.049L781.734 757.86H790.219L801.739 787.275C802.337 788.843 802.911 790.389 803.463 791.912C804.061 793.434 804.613 794.98 805.119 796.549C805.625 794.98 806.154 793.434 806.705 791.912C807.257 790.343 807.809 788.797 808.361 787.275L819.053 757.86H827.745Z" fill="url(#paint7_linear_301_330)"/>
<path d="M839.599 757.86H870.02V765.058H847.049V777.862H866.226V785.06H847.049V799.11H870.02V806.308H839.599V757.86Z" fill="url(#paint8_linear_301_330)"/>
</g>
<defs>
<filter id="filter0_i_301_330" x="558" y="215" width="317" height="596" filterUnits="userSpaceOnUse" color-interpolation-filters="sRGB">
<feFlood flood-opacity="0" result="BackgroundImageFix"/>
<feBlend mode="normal" in="SourceGraphic" in2="BackgroundImageFix" result="shape"/>
<feColorMatrix in="SourceAlpha" type="matrix" values="0 0 0 0 0 0 0 0 0 0 0 0 0 0 0 0 0 0 127 0" result="hardAlpha"/>
<feOffset dy="4"/>
<feGaussianBlur stdDeviation="2"/>
<feComposite in2="hardAlpha" operator="arithmetic" k2="-1" k3="1"/>
<feColorMatrix type="matrix" values="0 0 0 0 0 0 0 0 0 0 0 0 0 0 0 0 0 0 0.25 0"/>
<feBlend mode="normal" in2="shape" result="effect1_innerShadow_301_330"/>
</filter>
<linearGradient id="paint0_linear_301_330" x1="720" y1="175" x2="720" y2="1024" gradientUnits="userSpaceOnUse">
<stop stop-color="#3F3730"/>
<stop offset="1" stop-color="#272522"/>
</linearGradient>
<linearGradient id="paint1_linear_301_330" x1="548.26" y1="357.544" x2="997.77" y2="672.736" gradientUnits="userSpaceOnUse">
<stop stop-color="#D3B162"/>
<stop offset="0.489583" stop-color="#FBD888"/>
<stop offset="0.994792" stop-color="#D3B162"/>
</linearGradient>
<linearGradient id="paint2_linear_301_330" x1="548.26" y1="357.544" x2="997.77" y2="672.736" gradientUnits="userSpaceOnUse">
<stop stop-color="#D3B162"/>
<stop offset="0.489583" stop-color="#FBD888"/>
<stop offset="0.994792" stop-color="#D3B162"/>
</linearGradient>
<linearGradient id="paint3_linear_301_330" x1="548.26" y1="357.544" x2="997.77" y2="672.736" gradientUnits="userSpaceOnUse">
<stop stop-color="#D3B162"/>
<stop offset="0.489583" stop-color="#FBD888"/>
<stop offset="0.994792" stop-color="#D3B162"/>
</linearGradient>
<linearGradient id="paint4_linear_301_330" x1="548.26" y1="357.544" x2="997.77" y2="672.736" gradientUnits="userSpaceOnUse">
<stop stop-color="#D3B162"/>
<stop offset="0.489583" stop-color="#FBD888"/>
<stop offset="0.994792" stop-color="#D3B162"/>
</linearGradient>
<linearGradient id="paint5_linear_301_330" x1="548.26" y1="357.544" x2="997.77" y2="672.736" gradientUnits="userSpaceOnUse">
<stop stop-color="#D3B162"/>
<stop offset="0.489583" stop-color="#FBD888"/>
<stop offset="0.994792" stop-color="#D3B162"/>
</linearGradient>
<linearGradient id="paint6_linear_301_330" x1="548.26" y1="357.544" x2="997.77" y2="672.736" gradientUnits="userSpaceOnUse">
<stop stop-color="#D3B162"/>
<stop offset="0.489583" stop-color="#FBD888"/>
<stop offset="0.994792" stop-color="#D3B162"/>
</linearGradient>
<linearGradient id="paint7_linear_301_330" x1="548.26" y1="357.544" x2="997.77" y2="672.736" gradientUnits="userSpaceOnUse">
<stop stop-color="#D3B162"/>
<stop offset="0.489583" stop-color="#FBD888"/>
<stop offset="0.994792" stop-color="#D3B162"/>
</linearGradient>
<linearGradient id="paint8_linear_301_330" x1="548.26" y1="357.544" x2="997.77" y2="672.736" gradientUnits="userSpaceOnUse">
<stop stop-color="#D3B162"/>
<stop offset="0.489583" stop-color="#FBD888"/>
<stop offset="0.994792" stop-color="#D3B162"/>
</linearGradient>
</defs>
</svg>
