<svg width="40" height="40" viewBox="0 0 40 40" fill="none" xmlns="http://www.w3.org/2000/svg">
<path d="M19 30.6665H1.5C1.10218 30.6665 0.720644 30.5085 0.43934 30.2272C0.158035 29.9459 0 29.5643 0 29.1665V12.1665C0 11.7687 0.158035 11.3871 0.43934 11.1058C0.720644 10.8245 1.10218 10.6665 1.5 10.6665H19V30.6665ZM11.4583 26.1332C11.555 26.4448 11.84 26.6665 12.1767 26.6665H13.6C13.7195 26.6664 13.8372 26.6378 13.9434 26.583C14.0496 26.5282 14.1412 26.4488 14.2105 26.3515C14.2798 26.2541 14.3248 26.1416 14.3418 26.0233C14.3589 25.9051 14.3474 25.7844 14.3083 25.6715L14.31 25.6765L10.7267 15.1098C10.6763 14.9614 10.5807 14.8325 10.4534 14.741C10.3261 14.6496 10.1734 14.6002 10.0167 14.5998H7.985C7.82935 14.6001 7.67761 14.6486 7.55073 14.7388C7.42385 14.8289 7.32809 14.9563 7.27667 15.1032L7.275 15.1082L3.685 25.6748C3.64625 25.7878 3.63504 25.9084 3.65231 26.0266C3.66957 26.1448 3.71481 26.2571 3.78427 26.3543C3.85372 26.4515 3.94537 26.5306 4.0516 26.5852C4.15783 26.6398 4.27556 26.6683 4.395 26.6682H5.82167C5.98345 26.6679 6.14081 26.6154 6.27027 26.5183C6.39972 26.4213 6.49434 26.285 6.54 26.1298L6.54167 26.1248L7.11167 24.1365H10.875L11.46 26.1282L11.4583 26.1332ZM9.01667 17.3565C9.01667 17.3565 9.28333 18.6732 9.50667 19.4315L10.1833 21.7782H7.8L8.49167 19.4315C8.71 18.6732 8.98167 17.3565 8.98167 17.3565H9.01667ZM38.5 30.6665H21V10.6665H38.5C38.8978 10.6665 39.2794 10.8245 39.5607 11.1058C39.842 11.3871 40 11.7687 40 12.1665V29.1665C40 29.5643 39.842 29.9459 39.5607 30.2272C39.2794 30.5085 38.8978 30.6665 38.5 30.6665ZM36.25 16.4165H32.25V15.4148C32.25 15.2159 32.171 15.0252 32.0303 14.8845C31.8897 14.7439 31.6989 14.6648 31.5 14.6648H30.4983C30.2994 14.6648 30.1087 14.7439 29.968 14.8845C29.8274 15.0252 29.7483 15.2159 29.7483 15.4148V16.4165H25.7483C25.5494 16.4165 25.3587 16.4955 25.218 16.6362C25.0774 16.7768 24.9983 16.9676 24.9983 17.1665V18.1698C24.9983 18.5832 25.3333 18.9198 25.7483 18.9198H32.8833C32.415 19.92 31.7804 20.8335 31.0067 21.6215L31.0083 21.6198C30.6251 21.2207 30.2704 20.7952 29.9467 20.3465L29.9233 20.3115C29.8142 20.1555 29.6501 20.0467 29.4639 20.0068C29.2778 19.9669 29.0835 19.9989 28.92 20.0965L28.9233 20.0948L28.4683 20.3615L28.0683 20.6048C27.9803 20.6576 27.904 20.7278 27.8442 20.8112C27.7844 20.8945 27.7423 20.9893 27.7206 21.0896C27.6989 21.1899 27.698 21.2936 27.7179 21.3943C27.7379 21.4949 27.7783 21.5904 27.8367 21.6748L27.835 21.6732C28.2567 22.2715 28.6867 22.7965 29.1533 23.2882L29.1467 23.2815C28.68 23.6415 28.1483 24.0115 27.5983 24.3565L27.515 24.4048C27.3465 24.5058 27.2243 24.6689 27.1747 24.859C27.1252 25.0491 27.1522 25.2511 27.25 25.4215L27.2483 25.4182L27.745 26.2848C27.7952 26.3722 27.8624 26.4485 27.9427 26.5093C28.0229 26.5702 28.1146 26.6143 28.2122 26.639C28.3098 26.6637 28.4114 26.6685 28.511 26.6532C28.6105 26.6379 28.706 26.6028 28.7917 26.5498L28.7883 26.5515C29.6333 26.0315 30.355 25.5198 31.0433 24.9682L31 25.0015C31.645 25.5232 32.3667 26.0348 33.12 26.5032L33.2117 26.5565C33.297 26.6094 33.3921 26.6446 33.4913 26.66C33.5905 26.6754 33.6918 26.6707 33.7892 26.6461C33.8865 26.6215 33.9779 26.5776 34.058 26.517C34.138 26.4564 34.205 26.3802 34.255 26.2932L34.2567 26.2898L34.7533 25.4232C34.8494 25.2547 34.8766 25.0556 34.829 24.8676C34.7815 24.6796 34.6629 24.5173 34.4983 24.4148L34.495 24.4132C33.9171 24.0564 33.3585 23.6692 32.8217 23.2532L32.8667 23.2865C34.0623 22.0772 34.9664 20.6112 35.51 18.9998L35.5333 18.9215H36.25C36.4489 18.9215 36.6397 18.8425 36.7803 18.7018C36.921 18.5612 37 18.3704 37 18.1715V17.1682C36.9987 16.9701 36.9191 16.7806 36.7786 16.6411C36.6381 16.5015 36.448 16.4232 36.25 16.4232H36.2483L36.25 16.4165Z" fill="#E3DED4"/>
</svg>
