<svg width="40" height="60" viewBox="0 0 40 60" fill="none" xmlns="http://www.w3.org/2000/svg">
<path d="M19.656 20.5962C25.6346 21.4365 27.7901 21.5332 32.2675 24.4371C36.0285 27.339 38.6239 31.479 39.5868 36.1123C40.5497 40.7457 39.817 45.5683 37.5204 49.7129C35.2237 53.8574 31.514 57.0518 27.0583 58.7215C22.6027 60.3911 17.6936 60.4265 13.2141 58.8213C8.73449 57.216 4.97845 54.0755 2.62151 49.9645C0.264572 45.8536 -0.538575 41.042 0.356529 36.3952C1.25163 31.7485 3.40136 28.42 6.08635 25.8179C8.13702 28.2037 9.79819 29.5869 12.9975 30.886C11.3671 32.6029 10.2707 35.7805 9.80621 38.1919C9.3417 40.6033 9.75849 43.1002 10.9816 45.2336C12.2047 47.3669 14.1539 48.9967 16.4785 49.8297C18.8031 50.6627 21.3507 50.6444 23.6629 49.7779C25.9751 48.9114 27.9002 47.2537 29.092 45.103C30.2838 42.9522 30.6641 40.4496 30.1644 38.0451C29.6647 35.6407 28.3179 33.4923 26.3661 31.9863C24.4144 30.4804 22.1545 29.9654 19.5538 29.7096L19.5537 29.7052C16.4142 29.4222 13.6772 28.7705 11.2175 27.022C8.47743 25.0742 6.47718 22.2666 5.53911 19.0516C4.60104 15.8366 4.77977 12.4014 6.04651 9.29962C7.31325 6.19784 9.59422 3.61009 12.5219 1.95334C15.4495 0.296589 18.8534 -0.332668 22.1849 0.166963C25.5164 0.666594 28.5816 2.26602 30.8866 4.7075C33.1916 7.14899 34.6021 10.2904 34.8908 13.6254C35.1795 16.9605 34.457 19.1938 32.6055 21.9904C29.2612 19.8408 28.3446 19.9684 24.4383 19.1271C24.948 17.8626 25.5356 15.6576 25.4296 14.4339C25.3237 13.2101 24.8061 12.0575 23.9604 11.1617C23.1146 10.2658 21.9899 9.67894 20.7675 9.49561C19.5451 9.31228 18.2961 9.54317 17.2219 10.1511C16.1476 10.759 15.3107 11.7085 14.8459 12.8466C14.3811 13.9847 14.3155 15.2452 14.6597 16.4249C15.0039 17.6045 15.7379 18.6347 16.7433 19.3494C17.5775 19.9425 18.6315 20.3648 19.656 20.5962Z" fill="#E3DED4"/>
</svg>
