<svg width="35" height="24" viewBox="0 0 35 24" fill="none" xmlns="http://www.w3.org/2000/svg">
<path fill-rule="evenodd" clip-rule="evenodd" d="M1.33333 0C0.979711 0 0.640573 0.140476 0.390524 0.390525C0.140476 0.640573 0 0.979711 0 1.33333C0 1.68696 0.140476 2.02609 0.390524 2.27614C0.640573 2.52619 0.979711 2.66667 1.33333 2.66667L33.3333 2.66667C33.687 2.66667 34.0261 2.52619 34.2761 2.27614C34.5262 2.02609 34.6667 1.68696 34.6667 1.33333C34.6667 0.979711 34.5262 0.640573 34.2761 0.390525C34.0261 0.140476 33.687 0 33.3333 0L1.33333 0ZM0 12C0 11.6464 0.140476 11.3072 0.390524 11.0572C0.640573 10.8071 0.979711 10.6667 1.33333 10.6667L33.3333 10.6667C33.687 10.6667 34.0261 10.8071 34.2761 11.0572C34.5262 11.3072 34.6667 11.6464 34.6667 12C34.6667 12.3536 34.5262 12.6928 34.2761 12.9428C34.0261 13.1929 33.687 13.3333 33.3333 13.3333L1.33333 13.3333C0.979711 13.3333 0.640573 13.1929 0.390524 12.9428C0.140476 12.6928 0 12.3536 0 12ZM0 22.6667C0 22.313 0.140476 21.9739 0.390524 21.7239C0.640573 21.4738 0.979711 21.3333 1.33333 21.3333L33.3333 21.3333C33.687 21.3333 34.0261 21.4738 34.2761 21.7239C34.5262 21.9739 34.6667 22.313 34.6667 22.6667C34.6667 23.0203 34.5262 23.3594 34.2761 23.6095C34.0261 23.8595 33.687 24 33.3333 24L1.33333 24C0.979711 24 0.640573 23.8595 0.390524 23.6095C0.140476 23.3594 0 23.0203 0 22.6667Z" fill="#E3DED4"/>
</svg>
