<svg width="375" height="788" viewBox="0 0 375 788" fill="none" xmlns="http://www.w3.org/2000/svg">
<rect y="58" width="375" height="668" fill="#6E675F" fill-opacity="0.5" shape-rendering="crispEdges" />
<rect y="116" width="375" height="610" fill="#B4AEA5" fill-opacity="0.3" shape-rendering="crispEdges" />
<path fill-rule="evenodd" clip-rule="evenodd" d="M0 173.5H134.5C142 158.5 158.3 141 187.5 141C216.7 141 233.5 160 240.5 173.5H375V788H0V173.5Z" fill="url(#paint0_linear_322_361)"/>
<g filter="url(#filter0_i_322_361)">
<path d="M186.373 219.499C205.953 222.293 213.013 222.615 227.676 232.272C239.993 241.924 248.493 255.692 251.647 271.102C254.8 286.511 252.401 302.55 244.879 316.334C237.358 330.118 225.208 340.742 210.616 346.295C196.024 351.848 179.947 351.965 165.276 346.627C150.605 341.288 138.304 330.843 130.585 317.171C122.866 303.499 120.236 287.497 123.168 272.043C126.099 256.589 133.139 245.519 141.933 236.865C148.649 244.799 154.089 249.4 164.567 253.72C159.227 259.43 155.637 269.998 154.115 278.018C152.594 286.038 153.959 294.342 157.965 301.437C161.97 308.532 168.354 313.952 175.967 316.723C183.58 319.493 191.923 319.432 199.496 316.55C207.068 313.669 213.373 308.156 217.276 301.003C221.18 293.85 222.425 285.526 220.788 277.53C219.152 269.533 214.741 262.388 208.349 257.38C201.957 252.371 194.556 250.658 186.039 249.808L186.038 249.793C175.757 248.852 166.793 246.684 158.737 240.869C149.764 234.391 143.213 225.054 140.141 214.361C137.068 203.669 137.654 192.244 141.802 181.929C145.951 171.613 153.421 163.006 163.009 157.496C172.597 151.986 183.745 149.894 194.656 151.555C205.566 153.217 215.605 158.536 223.154 166.656C230.702 174.776 235.322 185.223 236.267 196.315C237.213 207.407 234.847 214.834 228.783 224.135C217.83 216.986 214.828 217.411 202.035 214.613C203.705 210.407 205.629 203.074 205.282 199.004C204.935 194.934 203.24 191.101 200.47 188.121C197.7 185.142 194.017 183.19 190.014 182.58C186.01 181.971 181.92 182.739 178.402 184.76C174.884 186.782 172.143 189.94 170.62 193.725C169.098 197.51 168.883 201.702 170.011 205.626C171.138 209.549 173.542 212.975 176.834 215.352C179.566 217.324 183.018 218.729 186.373 219.499Z" fill="url(#paint1_linear_322_361)"/>
<path d="M124.096 363.803H251.035V367.107H124.096V363.803Z" fill="url(#paint2_linear_322_361)"/>
<path d="M125.447 390.644C126.226 391.775 127.034 392.657 127.87 393.29C128.726 393.903 129.828 394.21 131.177 394.21C131.823 394.21 132.441 394.105 133.03 393.894C133.619 393.683 134.104 393.376 134.484 392.974C134.864 392.571 135.054 392.092 135.054 391.536C135.054 390.577 134.645 389.829 133.828 389.292C133.03 388.755 131.899 388.343 130.436 388.056C128.574 387.672 127.091 387.011 125.989 386.071C124.887 385.112 124.336 383.732 124.336 381.93C124.336 380.779 124.649 379.782 125.276 378.939C125.922 378.095 126.768 377.443 127.813 376.983C128.859 376.523 129.989 376.293 131.206 376.293C132.783 376.293 134.142 376.599 135.282 377.213C136.422 377.826 137.316 378.699 137.962 379.83L135.795 381.987C135.282 381.124 134.636 380.424 133.857 379.888C133.078 379.351 132.165 379.082 131.12 379.082C130.075 379.082 129.191 379.332 128.469 379.83C127.766 380.309 127.414 380.98 127.414 381.843C127.414 382.821 127.785 383.54 128.526 384C129.286 384.441 130.284 384.796 131.519 385.064C132.64 385.295 133.705 385.649 134.712 386.129C135.719 386.608 136.536 387.231 137.164 387.998C137.81 388.746 138.133 389.657 138.133 390.73C138.133 392.648 137.487 394.172 136.194 395.303C134.902 396.434 133.125 397 130.864 397C129.324 397 127.918 396.693 126.645 396.08C125.39 395.466 124.288 394.469 123.338 393.089L125.447 390.644Z" fill="url(#paint3_linear_322_361)"/>
<path d="M146.942 376.58L153.47 387.308L160.112 376.58H162.963V396.712H159.884V388.458C159.884 387.25 159.903 386.109 159.941 385.036C159.998 383.943 160.083 382.86 160.197 381.786L154.325 390.932H152.444L146.714 381.815C146.828 382.888 146.904 383.962 146.942 385.036C146.98 386.109 146.999 387.25 146.999 388.458V396.712H143.92V376.58H146.942Z" fill="url(#paint4_linear_322_361)"/>
<path d="M188.113 386.646C188.113 388.103 187.875 389.465 187.4 390.73C186.925 391.977 186.241 393.069 185.348 394.009C184.473 394.948 183.438 395.687 182.24 396.223C181.062 396.741 179.76 397 178.335 397C176.91 397 175.598 396.741 174.401 396.223C173.204 395.687 172.168 394.948 171.294 394.009C170.42 393.069 169.745 391.977 169.27 390.73C168.795 389.465 168.557 388.103 168.557 386.646C168.557 385.189 168.795 383.837 169.27 382.591C169.745 381.326 170.42 380.223 171.294 379.284C172.168 378.344 173.204 377.616 174.401 377.098C175.598 376.561 176.91 376.293 178.335 376.293C179.76 376.293 181.062 376.561 182.24 377.098C183.438 377.616 184.473 378.344 185.348 379.284C186.241 380.223 186.925 381.326 187.4 382.591C187.875 383.837 188.113 385.189 188.113 386.646ZM184.977 386.646C184.977 385.247 184.692 384 184.122 382.907C183.552 381.795 182.763 380.923 181.756 380.29C180.768 379.638 179.627 379.312 178.335 379.312C177.024 379.312 175.864 379.638 174.857 380.29C173.869 380.923 173.09 381.795 172.52 382.907C171.969 384 171.693 385.247 171.693 386.646C171.693 388.046 171.969 389.302 172.52 390.414C173.09 391.507 173.869 392.379 174.857 393.031C175.864 393.664 177.024 393.98 178.335 393.98C179.627 393.98 180.768 393.664 181.756 393.031C182.763 392.379 183.552 391.497 184.122 390.385C184.692 389.273 184.977 388.027 184.977 386.646Z" fill="url(#paint5_linear_322_361)"/>
<path d="M211.837 386.646C211.837 388.103 211.599 389.465 211.124 390.73C210.649 391.977 209.965 393.069 209.072 394.009C208.197 394.948 207.162 395.687 205.964 396.223C204.786 396.741 203.484 397 202.059 397C200.634 397 199.322 396.741 198.125 396.223C196.928 395.687 195.892 394.948 195.018 394.009C194.144 393.069 193.469 391.977 192.994 390.73C192.519 389.465 192.281 388.103 192.281 386.646C192.281 385.189 192.519 383.837 192.994 382.591C193.469 381.326 194.144 380.223 195.018 379.284C195.892 378.344 196.928 377.616 198.125 377.098C199.322 376.561 200.634 376.293 202.059 376.293C203.484 376.293 204.786 376.561 205.964 377.098C207.162 377.616 208.197 378.344 209.072 379.284C209.965 380.223 210.649 381.326 211.124 382.591C211.599 383.837 211.837 385.189 211.837 386.646ZM208.701 386.646C208.701 385.247 208.416 384 207.846 382.907C207.276 381.795 206.487 380.923 205.48 380.29C204.491 379.638 203.351 379.312 202.059 379.312C200.748 379.312 199.588 379.638 198.581 380.29C197.593 380.923 196.814 381.795 196.244 382.907C195.692 384 195.417 385.247 195.417 386.646C195.417 388.046 195.692 389.302 196.244 390.414C196.814 391.507 197.593 392.379 198.581 393.031C199.588 393.664 200.748 393.98 202.059 393.98C203.351 393.98 204.491 393.664 205.48 393.031C206.487 392.379 207.276 391.497 207.846 390.385C208.416 389.273 208.701 388.027 208.701 386.646Z" fill="url(#paint6_linear_322_361)"/>
<path d="M233.472 376.58L225.433 396.712H222.44L214.458 376.58H217.964L222.725 388.803C222.972 389.455 223.209 390.098 223.438 390.73C223.685 391.363 223.913 392.005 224.122 392.657C224.331 392.005 224.549 391.363 224.777 390.73C225.005 390.078 225.233 389.436 225.461 388.803L229.88 376.58H233.472Z" fill="url(#paint7_linear_322_361)"/>
<path d="M238.37 376.58H250.942V379.571H241.449V384.892H249.374V387.883H241.449V393.721H250.942V396.712H238.37V376.58Z" fill="url(#paint8_linear_322_361)"/>
</g>
<defs>
<filter id="filter0_i_322_361" x="122" y="151" width="131" height="250" filterUnits="userSpaceOnUse" color-interpolation-filters="sRGB">
<feFlood flood-opacity="0" result="BackgroundImageFix"/>
<feBlend mode="normal" in="SourceGraphic" in2="BackgroundImageFix" result="shape"/>
<feColorMatrix in="SourceAlpha" type="matrix" values="0 0 0 0 0 0 0 0 0 0 0 0 0 0 0 0 0 0 127 0" result="hardAlpha"/>
<feOffset dy="4"/>
<feGaussianBlur stdDeviation="2"/>
<feComposite in2="hardAlpha" operator="arithmetic" k2="-1" k3="1"/>
<feColorMatrix type="matrix" values="0 0 0 0 0 0 0 0 0 0 0 0 0 0 0 0 0 0 0.25 0"/>
<feBlend mode="normal" in2="shape" result="effect1_innerShadow_322_361"/>
</filter>
<linearGradient id="paint0_linear_322_361" x1="187.5" y1="114.961" x2="187.5" y2="788" gradientUnits="userSpaceOnUse">
<stop stop-color="#3F3730"/>
<stop offset="1" stop-color="#272522"/>
</linearGradient>
<linearGradient id="paint1_linear_322_361" x1="117.975" y1="210.233" x2="304.411" y2="340.239" gradientUnits="userSpaceOnUse">
<stop stop-color="#D3B162"/>
<stop offset="0.489583" stop-color="#FBD888"/>
<stop offset="0.994792" stop-color="#D3B162"/>
</linearGradient>
<linearGradient id="paint2_linear_322_361" x1="117.975" y1="210.233" x2="304.411" y2="340.239" gradientUnits="userSpaceOnUse">
<stop stop-color="#D3B162"/>
<stop offset="0.489583" stop-color="#FBD888"/>
<stop offset="0.994792" stop-color="#D3B162"/>
</linearGradient>
<linearGradient id="paint3_linear_322_361" x1="117.975" y1="210.233" x2="304.411" y2="340.239" gradientUnits="userSpaceOnUse">
<stop stop-color="#D3B162"/>
<stop offset="0.489583" stop-color="#FBD888"/>
<stop offset="0.994792" stop-color="#D3B162"/>
</linearGradient>
<linearGradient id="paint4_linear_322_361" x1="117.975" y1="210.233" x2="304.411" y2="340.239" gradientUnits="userSpaceOnUse">
<stop stop-color="#D3B162"/>
<stop offset="0.489583" stop-color="#FBD888"/>
<stop offset="0.994792" stop-color="#D3B162"/>
</linearGradient>
<linearGradient id="paint5_linear_322_361" x1="117.975" y1="210.233" x2="304.411" y2="340.239" gradientUnits="userSpaceOnUse">
<stop stop-color="#D3B162"/>
<stop offset="0.489583" stop-color="#FBD888"/>
<stop offset="0.994792" stop-color="#D3B162"/>
</linearGradient>
<linearGradient id="paint6_linear_322_361" x1="117.975" y1="210.233" x2="304.411" y2="340.239" gradientUnits="userSpaceOnUse">
<stop stop-color="#D3B162"/>
<stop offset="0.489583" stop-color="#FBD888"/>
<stop offset="0.994792" stop-color="#D3B162"/>
</linearGradient>
<linearGradient id="paint7_linear_322_361" x1="117.975" y1="210.233" x2="304.411" y2="340.239" gradientUnits="userSpaceOnUse">
<stop stop-color="#D3B162"/>
<stop offset="0.489583" stop-color="#FBD888"/>
<stop offset="0.994792" stop-color="#D3B162"/>
</linearGradient>
<linearGradient id="paint8_linear_322_361" x1="117.975" y1="210.233" x2="304.411" y2="340.239" gradientUnits="userSpaceOnUse">
<stop stop-color="#D3B162"/>
<stop offset="0.489583" stop-color="#FBD888"/>
<stop offset="0.994792" stop-color="#D3B162"/>
</linearGradient>
</defs>
</svg>
