<svg width="32" height="48" viewBox="0 0 32 48" fill="none" xmlns="http://www.w3.org/2000/svg">
<g filter="url(#filter0_i_225_38)">
<path d="M15.6225 16.477C20.3743 17.1492 22.0875 17.2266 25.6461 19.5496C28.6354 21.8712 30.6982 25.1832 31.4635 28.8899C32.2288 32.5965 31.6464 36.4547 29.8211 39.7703C27.9957 43.0859 25.0472 45.6414 21.5059 46.9772C17.9646 48.3129 14.0628 48.3412 10.5025 47.057C6.94215 45.7728 3.95686 43.2604 2.08357 39.9716C0.210281 36.6829 -0.428058 32.8336 0.283369 29.1162C0.994795 25.3988 2.70339 22.736 4.83742 20.6543C6.46728 22.5629 7.78758 23.6695 10.3304 24.7088C9.03454 26.0823 8.16314 28.6244 7.79395 30.5535C7.42476 32.4827 7.75602 34.4802 8.72815 36.1869C9.70027 37.8936 11.2495 39.1974 13.0971 39.8638C14.9447 40.5302 16.9694 40.5155 18.8072 39.8223C20.6449 39.1292 22.175 37.803 23.1223 36.0824C24.0695 34.3618 24.3717 32.3596 23.9746 30.4361C23.5774 28.5125 22.507 26.7938 20.9557 25.5891C19.4045 24.3843 17.6083 23.9723 15.5413 23.7677L15.5412 23.7642C13.046 23.5377 10.8706 23.0164 8.91567 21.6176C6.73784 20.0594 5.14805 17.8133 4.40247 15.2413C3.65689 12.6692 3.79895 9.92112 4.80575 7.4397C5.81255 4.95828 7.62546 2.88807 9.95235 1.56267C12.2792 0.237271 14.9846 -0.266134 17.6325 0.133571C20.2804 0.533276 22.7166 1.81281 24.5486 3.766C26.3806 5.71919 27.5016 8.23228 27.7311 10.9003C27.9606 13.5684 27.3863 15.355 25.9148 17.5924C23.2567 15.8727 22.5282 15.9747 19.4235 15.3017C19.8286 14.29 20.2956 12.5261 20.2114 11.5471C20.1272 10.5681 19.7159 9.646 19.0437 8.92932C18.3714 8.21265 17.4775 7.74315 16.506 7.59649C15.5344 7.44983 14.5417 7.63454 13.6879 8.12086C12.8341 8.60719 12.1689 9.3668 11.7995 10.2773C11.4301 11.1878 11.3779 12.1962 11.6515 13.1399C11.9251 14.0836 12.5084 14.9078 13.3075 15.4795C13.9706 15.954 14.8083 16.2918 15.6225 16.477Z" fill="url(#paint0_linear_225_38)"/>
</g>
<defs>
<filter id="filter0_i_225_38" x="0" y="0" width="36.9464" height="53.1545" filterUnits="userSpaceOnUse" color-interpolation-filters="sRGB">
<feFlood flood-opacity="0" result="BackgroundImageFix"/>
<feBlend mode="normal" in="SourceGraphic" in2="BackgroundImageFix" result="shape"/>
<feColorMatrix in="SourceAlpha" type="matrix" values="0 0 0 0 0 0 0 0 0 0 0 0 0 0 0 0 0 0 127 0" result="hardAlpha"/>
<feOffset dx="5.15447" dy="5.15447"/>
<feGaussianBlur stdDeviation="3.86585"/>
<feComposite in2="hardAlpha" operator="arithmetic" k2="-1" k3="1"/>
<feColorMatrix type="matrix" values="0 0 0 0 0 0 0 0 0 0 0 0 0 0 0 0 0 0 0.25 0"/>
<feBlend mode="normal" in2="shape" result="effect1_innerShadow_225_38"/>
</filter>
<linearGradient id="paint0_linear_225_38" x1="-0.976809" y1="11.5576" x2="37.4009" y2="44.843" gradientUnits="userSpaceOnUse">
<stop stop-color="#D3B162"/>
<stop offset="0.489583" stop-color="#FBD888"/>
<stop offset="0.994792" stop-color="#D3B162"/>
</linearGradient>
</defs>
</svg>
