<svg width="48" height="48" viewBox="0 0 48 48" fill="none" xmlns="http://www.w3.org/2000/svg">
<path d="M26.8316 24.0082L35.4316 15.4282C35.8082 15.0516 36.0198 14.5408 36.0198 14.0082C36.0198 13.4756 35.8082 12.9648 35.4316 12.5882C35.055 12.2116 34.5442 12 34.0116 12C33.479 12 32.9682 12.2116 32.5916 12.5882L24.0116 21.1882L15.4316 12.5882C15.055 12.2116 14.5442 12 14.0116 12C13.479 12 12.9682 12.2116 12.5916 12.5882C12.215 12.9648 12.0034 13.4756 12.0034 14.0082C12.0034 14.5408 12.215 15.0516 12.5916 15.4282L21.1916 24.0082L12.5916 32.5882C12.4041 32.7741 12.2554 32.9953 12.1538 33.239C12.0523 33.4827 12 33.7442 12 34.0082C12 34.2722 12.0523 34.5336 12.1538 34.7773C12.2554 35.0211 12.4041 35.2423 12.5916 35.4282C12.7775 35.6156 12.9987 35.7644 13.2424 35.866C13.4862 35.9675 13.7476 36.0198 14.0116 36.0198C14.2756 36.0198 14.537 35.9675 14.7808 35.866C15.0245 35.7644 15.2457 35.6156 15.4316 35.4282L24.0116 26.8282L32.5916 35.4282C32.7775 35.6156 32.9987 35.7644 33.2424 35.866C33.4862 35.9675 33.7476 36.0198 34.0116 36.0198C34.2756 36.0198 34.537 35.9675 34.7808 35.866C35.0245 35.7644 35.2457 35.6156 35.4316 35.4282C35.6191 35.2423 35.7678 35.0211 35.8694 34.7773C35.9709 34.5336 36.0232 34.2722 36.0232 34.0082C36.0232 33.7442 35.9709 33.4827 35.8694 33.239C35.7678 32.9953 35.6191 32.7741 35.4316 32.5882L26.8316 24.0082Z" fill="#271F19"/>
</svg>
