<svg width="48" height="48" viewBox="0 0 48 48" fill="none" xmlns="http://www.w3.org/2000/svg">
<path d="M47.286 9.87415C45.616 10.6142 43.822 11.1142 41.936 11.3402C43.882 10.1757 45.3379 8.34309 46.032 6.18415C44.2037 7.27013 42.2027 8.03454 40.116 8.44415C38.7128 6.94588 36.8541 5.95281 34.8286 5.6191C32.8032 5.2854 30.7242 5.62974 28.9145 6.59866C27.1047 7.56758 25.6655 9.10688 24.8203 10.9776C23.9751 12.8482 23.7711 14.9457 24.24 16.9442C20.5354 16.7581 16.9112 15.7953 13.6028 14.118C10.2944 12.4407 7.37568 10.0865 5.03599 7.20815C4.23599 8.58815 3.77599 10.1882 3.77599 11.8922C3.7751 13.4261 4.15286 14.9366 4.87575 16.2896C5.59864 17.6426 6.64432 18.7962 7.91999 19.6482C6.44055 19.6011 4.99374 19.2013 3.69999 18.4822V18.6022C3.69984 20.7536 4.44406 22.8389 5.80636 24.5041C7.16866 26.1694 9.06514 27.312 11.174 27.7382C9.80156 28.1096 8.36267 28.1643 6.96599 27.8982C7.56099 29.7494 8.71998 31.3682 10.2807 32.528C11.8415 33.6878 13.7258 34.3305 15.67 34.3662C12.3697 36.957 8.29377 38.3623 4.09799 38.3562C3.35475 38.3564 2.61215 38.313 1.87399 38.2262C6.13295 40.9645 11.0907 42.4178 16.154 42.4122C33.294 42.4122 42.664 28.2162 42.664 15.9042C42.664 15.5042 42.654 15.1002 42.636 14.7002C44.4586 13.3821 46.0318 11.7499 47.282 9.88015L47.286 9.87415Z" fill="#E3DED4"/>
</svg>
