<svg width="22" height="28" viewBox="0 0 22 28" fill="none" xmlns="http://www.w3.org/2000/svg">
<path d="M21 7H16.75V6.44C16.75 2.884 14.175 0 11 0C7.825 0 5.25 2.884 5.25 6.44V7H1C0.446875 7 0 7.5005 0 8.12V26.88C0 27.4995 0.446875 28 1 28H21C21.5531 28 22 27.4995 22 26.88V8.12C22 7.5005 21.5531 7 21 7ZM7.5 6.44C7.5 4.2735 9.06563 2.52 11 2.52C12.9344 2.52 14.5 4.2735 14.5 6.44V7H7.5V6.44ZM19.75 25.48H2.25V9.52H5.25V12.6C5.25 12.754 5.3625 12.88 5.5 12.88H7.25C7.3875 12.88 7.5 12.754 7.5 12.6V9.52H14.5V12.6C14.5 12.754 14.6125 12.88 14.75 12.88H16.5C16.6375 12.88 16.75 12.754 16.75 12.6V9.52H19.75V25.48Z" fill="#E3DED4"/>
</svg>
