<svg width="48" height="48" viewBox="0 0 48 48" fill="none" xmlns="http://www.w3.org/2000/svg">
<path d="M19.8 0H17.1L15.3 6.9L13.5 0H10.5C11.1 1.8 11.7 3.3 12.3 5.1C13.2 7.5 13.8 9.6 13.8 10.8V18H16.5V10.8L19.8 0ZM27 13.5V9C27 7.5 26.7 6.6 26.1 5.7C25.5 4.8 24.6 4.5 23.4 4.5C22.2 4.5 21.3 5.1 20.7 6C20.1 6.6 19.8 7.5 19.8 9V13.8C19.8 15.3 20.1 16.2 20.7 16.8C21.3 17.7 22.2 18 23.4 18C24.6 18 25.5 17.4 26.1 16.5C26.7 16.2 27 15 27 13.5ZM24.6 14.1C24.6 15.3 24.3 15.9 23.4 15.9C22.5 15.9 22.2 15.3 22.2 14.1V8.4C22.2 7.2 22.5 6.6 23.4 6.6C24.3 6.6 24.6 7.2 24.6 8.4V14.1ZM36 18V4.5H33.6V14.7C33 15.6 32.7 15.9 32.1 15.9C31.8 15.9 31.5 15.6 31.5 15.3V4.5H29.1V15C29.1 15.9 29.1 16.5 29.4 17.1C29.4 17.7 30 18 30.9 18C31.8 18 32.7 17.4 33.6 16.5V18H36Z" fill="#E3DED4"/>
<path d="M37.2 31.5C36.3 31.5 36 32.1 36 33.3V34.5H38.4V33.3C38.4 32.1 38.1 31.5 37.2 31.5Z" fill="#E3DED4"/>
<path d="M28.5 31.5C28.2 31.5 27.6 31.8 27.3 32.1V40.2C27.6 40.5 28.2 40.8 28.5 40.8C29.1 40.8 29.4 40.2 29.4 39V33.3C29.4 32.1 29.1 31.5 28.5 31.5Z" fill="#E3DED4"/>
<path d="M43.2 24.8999C42.6 22.7999 40.8 20.9999 39 20.9999C34.2 20.3999 29.1 20.3999 24 20.3999C18.9 20.3999 14.1 20.3999 9.00001 20.9999C7.20001 20.9999 5.40001 22.7999 4.80001 24.8999C4.20001 27.8999 4.20001 31.1999 4.20001 34.1999C4.20001 37.1999 4.20001 40.4999 4.80001 43.4999C5.40001 45.5999 6.90001 47.0999 9.00001 47.3999C14.1 47.9999 18.9 47.9999 24 47.9999C29.1 47.9999 33.9 47.9999 39 47.3999C41.1 47.0999 42.9 45.5999 43.2 43.4999C43.8 40.4999 43.8 37.1999 43.8 34.1999C43.8 31.1999 43.8 27.8999 43.2 24.8999ZM15.6 27.5999H12.6V42.8999H9.90001V27.5999H7.20001V24.8999H15.6V27.5999ZM22.8 42.8999H20.4V41.3999C19.5 42.5999 18.6 42.8999 17.7 42.8999C16.8 42.8999 16.5 42.5999 16.2 41.9999C16.2 41.6999 15.9 41.0999 15.9 39.8999V29.3999H18.3V39.8999C18.3 40.1999 18.6 40.4999 18.9 40.4999C19.5 40.4999 19.8 40.1999 20.4 39.2999V29.3999H22.8V42.8999ZM31.8 38.6999C31.8 39.8999 31.8 40.7999 31.5 41.3999C31.2 42.2999 30.6 42.8999 29.7 42.8999C28.8 42.8999 27.9 42.2999 27.3 41.3999V42.5999H24.9V24.8999H27.3V30.5999C28.2 29.6999 28.8 29.0999 29.7 29.0999C30.6 29.0999 31.2 29.6999 31.5 30.5999C31.8 31.1999 31.8 32.0999 31.8 33.2999V38.6999ZM40.8 36.5999H36V38.9999C36 40.1999 36.3 40.7999 37.2 40.7999C37.8 40.7999 38.1 40.4999 38.4 39.8999V38.3999H40.8V40.1999C40.8 40.7999 40.5 41.0999 40.2 41.6999C39.6 42.5999 38.7 43.1999 37.2 43.1999C36 43.1999 35.1 42.5999 34.2 41.6999C33.6 41.0999 33.3 39.8999 33.3 38.6999V34.1999C33.3 32.6999 33.6 31.7999 33.9 31.1999C34.5 30.2999 35.4 29.6999 36.9 29.6999C38.1 29.6999 39 30.2999 39.6 31.1999C40.2 31.7999 40.2 32.9999 40.2 34.1999V36.5999H40.8Z" fill="#E3DED4"/>
</svg>
